<?xml version="1.0" encoding="UTF-8"?>
<svg id="Capa_2" data-name="Capa 2" xmlns="http://www.w3.org/2000/svg" viewBox="0 0 28.64 40.49">
  <defs>
    <style>
      .cls-1 {
        fill: #1d1d1b;
        stroke-width: 0px;
      }
    </style>
  </defs>
  <g id="Capa_1-2" data-name="Capa 1">
    <path class="cls-1" d="M6.49,26.24c-2.44-1.56-4.76-3.05-6.15-4.97-.22.6-.34,1.23-.34,1.93v2.96c0,4.24,1.36,7.84,3.94,10.42,2.56,2.55,6.11,3.9,10.28,3.9h.03c.87,0,1.71-.07,2.52-.19-.21-7.59-5.54-11.03-10.27-14.06Z"/>
    <path class="cls-1" d="M17.75,40.13c6.63-1.36,10.89-6.62,10.89-13.96v-2.59c-1.35,1.99-3.91,3.2-6.57,4.45-2.44,1.15-4.95,2.35-6.89,4.22,1.48,2.06,2.46,4.6,2.58,7.88Z"/>
    <path class="cls-1" d="M.85,20.23c.97,1.59,2.72,2.91,4.7,4.22.51-.09.85-.67,1.06-1.17.33-.8.52-1.92.52-3.08,0-2.29-.68-4.02-1.59-4.16-1.99,1.31-3.71,2.6-4.69,4.19Z"/>
    <path class="cls-1" d="M22.12,26.91c3.37-1.6,6.22-3.08,6.49-6.17h-10.75c.24,1.22,1.15,4.25,4.25,6.17Z"/>
    <path class="cls-1" d="M13.88,8.29c-2.32-3.19-2.86-6.61-2.98-7.96C4.26,1.65,0,6.93,0,14.32v5.41c1.34-2.18,3.87-3.8,6.49-5.49,2.65-1.69,5.38-3.45,7.38-5.95Z"/>
    <path class="cls-1" d="M28.62,13.81c-.23-8.28-5.94-13.81-14.37-13.81-.82,0-1.61.07-2.38.17.15,2.4,1.69,13.38,16.75,13.64Z"/>
  </g>
</svg>