<?xml version="1.0" encoding="utf-8"?>
<!-- Generator: Adobe Illustrator 27.9.6, SVG Export Plug-In . SVG Version: 9.03 Build 54986)  -->
<svg version="1.1" id="Capa_2_00000118367832249342842460000002022780580189071259_"
	 xmlns="http://www.w3.org/2000/svg" xmlns:xlink="http://www.w3.org/1999/xlink" x="0px" y="0px" viewBox="0 0 28.6 40.5"
	 style="enable-background:new 0 0 28.6 40.5;" xml:space="preserve">
<style type="text/css">
	.st0{fill:#E8EFF9;}
</style>
<g id="Capa_1-2">
	<path class="st0" d="M6.5,26.2c-2.4-1.6-4.8-3-6.2-5C0.1,21.9,0,22.5,0,23.2v3c0,4.2,1.4,7.8,3.9,10.4c2.6,2.5,6.1,3.9,10.3,3.9h0
		c0.9,0,1.7-0.1,2.5-0.2C16.6,32.7,11.2,29.3,6.5,26.2L6.5,26.2z"/>
	<path class="st0" d="M17.8,40.1c6.6-1.4,10.9-6.6,10.9-14v-2.6c-1.4,2-3.9,3.2-6.6,4.5c-2.4,1.1-5,2.4-6.9,4.2
		C16.7,34.3,17.6,36.9,17.8,40.1L17.8,40.1z"/>
	<path class="st0" d="M0.9,20.2c1,1.6,2.7,2.9,4.7,4.2c0.5-0.1,0.8-0.7,1.1-1.2c0.3-0.8,0.5-1.9,0.5-3.1c0-2.3-0.7-4-1.6-4.2
		C3.5,17.3,1.8,18.6,0.9,20.2z"/>
	<path class="st0" d="M22.1,26.9c3.4-1.6,6.2-3.1,6.5-6.2H17.9C18.1,22,19,25,22.1,26.9L22.1,26.9z"/>
	<path class="st0" d="M13.9,8.3c-2.3-3.2-2.9-6.6-3-8C4.3,1.6,0,6.9,0,14.3v5.4c1.3-2.2,3.9-3.8,6.5-5.5
		C9.1,12.5,11.9,10.8,13.9,8.3L13.9,8.3z"/>
	<path class="st0" d="M28.6,13.8C28.4,5.5,22.7,0,14.3,0c-0.8,0-1.6,0.1-2.4,0.2C12,2.6,13.6,13.6,28.6,13.8z"/>
</g>
</svg>
